<?xml version="1.0" standalone="no"?>
<!DOCTYPE svg PUBLIC "-//W3C//DTD SVG 20010904//EN"
 "http://www.w3.org/TR/2001/REC-SVG-20010904/DTD/svg10.dtd">
<svg version="1.0" xmlns="http://www.w3.org/2000/svg"
 width="240.000000pt" height="240.000000pt" viewBox="0 0 240.000000 240.000000"
 preserveAspectRatio="xMidYMid meet">

<g transform="translate(0.000000,240.000000) scale(0.100000,-0.100000)"
fill="#000000" stroke="none">
<path d="M1035 1879 c-22 -5 -82 -30 -133 -55 -76 -36 -108 -60 -175 -127 -56
-55 -94 -104 -117 -149 -30 -57 -40 -68 -74 -79 -151 -50 -298 -228 -327 -397
-36 -203 81 -424 273 -516 92 -44 156 -56 306 -56 l112 0 0 95 0 95 -107 0
c-161 0 -239 26 -313 102 -81 85 -106 217 -59 318 47 100 133 168 245 193 l57
13 22 63 c47 129 127 216 255 279 74 37 76 37 200 37 123 0 126 0 203 -37 185
-88 289 -251 302 -471 l4 -78 68 -3 c104 -5 174 -47 208 -128 30 -74 10 -173
-46 -225 -53 -48 -93 -57 -269 -60 l-165 -3 -3 -96 -3 -96 193 4 c177 4 198 6
248 28 178 77 278 249 250 427 -22 133 -101 239 -225 299 -72 34 -74 36 -84
83 -52 243 -227 441 -461 522 -53 18 -91 23 -205 25 -77 2 -158 -1 -180 -7z"/>
<path d="M1002 1147 l-194 -242 146 -3 146 -3 0 -199 0 -200 100 0 100 0 0
200 0 199 146 3 146 3 -192 240 c-105 132 -195 241 -198 242 -4 2 -94 -106
-200 -240z"/>
</g>
</svg>
